<svg xmlns="http://www.w3.org/2000/svg" width="256" height="256" viewBox="0 0 100 100"><rect width="100" height="100" rx="20" fill="#213507"></rect><path d="M11.12 77.36L11.12 77.36Q9.41 77.36 8.29 76.28Q7.16 75.20 7.16 73.40L7.16 73.40L7.16 22.82Q7.61 22.64 8.56 22.41Q9.50 22.19 10.58 22.19L10.58 22.19Q14.54 22.19 14.54 25.52L14.54 25.52L14.54 71.06L40.37 71.06Q41.36 72.05 41.36 74.03L41.36 74.03Q41.36 75.56 40.55 76.46Q39.74 77.36 38.39 77.36L38.39 77.36L11.12 77.36ZM90.68 36.41L90.68 36.41Q90.68 40.28 88.84 43.56Q86.99 46.85 82.67 48.65L82.67 48.65Q87.80 50.36 90.32 54.00Q92.84 57.65 92.84 62.24L92.84 62.24Q92.84 70.43 86.94 74.39Q81.05 78.35 70.16 78.35L70.16 78.35Q66.38 78.35 62.83 78.03Q59.27 77.72 56.03 76.82L56.03 76.82Q52.25 75.74 52.25 72.68L52.25 72.68L52.25 26.60Q52.25 23.99 55.22 23.18L55.22 23.18Q58.28 22.28 61.70 21.97Q65.12 21.65 69.17 21.65L69.17 21.65Q79.34 21.65 85.01 25.25Q90.68 28.85 90.68 36.41ZM71.69 51.89L59.45 51.89L59.45 71.33Q61.61 71.78 64.44 72.05Q67.28 72.32 70.16 72.32L70.16 72.32Q77.63 72.32 81.50 69.84Q85.37 67.37 85.37 62.06L85.37 62.06Q85.37 57.38 81.91 54.64Q78.44 51.89 71.69 51.89L71.69 51.89ZM59.45 28.49L59.45 45.95L71.69 45.95Q77.36 45.95 80.28 43.43Q83.21 40.91 83.21 36.59L83.21 36.59Q83.21 27.68 69.17 27.68L69.17 27.68Q66.02 27.68 63.73 27.91Q61.43 28.13 59.45 28.49L59.45 28.49Z" fill="#fff"></path></svg>